<svg width="17" height="17" viewBox="0 0 17 17" fill="none" xmlns="http://www.w3.org/2000/svg">
<path fill-rule="evenodd" clip-rule="evenodd" d="M8.6367 16.0272C8.57102 16.0273 8.50594 16.0144 8.44524 15.9893C8.38455 15.9642 8.32943 15.9274 8.28296 15.881L0.783378 8.38123C0.736892 8.3348 0.700024 8.27965 0.674864 8.21896C0.649703 8.15826 0.636719 8.0932 0.636719 8.02749C0.636719 7.96178 0.649703 7.89672 0.674864 7.83603C0.700024 7.77533 0.736892 7.72019 0.783378 7.67375L8.28296 0.173984C8.3294 0.127497 8.38455 0.0906166 8.44524 0.0654552C8.50594 0.0402938 8.571 0.0273438 8.6367 0.0273438C8.70241 0.0273438 8.76746 0.0402938 8.82816 0.0654552C8.88885 0.0906166 8.94401 0.127497 8.99044 0.173984L16.49 7.67375C16.5365 7.72019 16.5734 7.77533 16.5985 7.83603C16.6237 7.89672 16.6366 7.96178 16.6366 8.02749C16.6366 8.0932 16.6237 8.15826 16.5985 8.21896C16.5734 8.27965 16.5365 8.3348 16.49 8.38123L8.99044 15.881C8.94398 15.9274 8.88879 15.9642 8.8281 15.9893C8.7674 16.0144 8.70238 16.0273 8.6367 16.0272ZM1.84332 8.02749L8.6367 14.821L15.4288 8.02749L8.6367 1.2352L1.84332 8.02749ZM16.1363 3.84022C16.0037 3.84022 15.8765 3.78754 15.7827 3.69377C15.689 3.6 15.6363 3.47283 15.6363 3.34022V1.02773H13.3239C13.1913 1.02773 13.0641 0.975057 12.9704 0.881289C12.8766 0.787522 12.824 0.660345 12.824 0.527737C12.824 0.39513 12.8766 0.267953 12.9704 0.174186C13.0641 0.0804182 13.1913 0.0277405 13.3239 0.0277405H16.1363C16.2689 0.0277405 16.396 0.0804182 16.4898 0.174186C16.5835 0.267953 16.6363 0.39513 16.6363 0.527737V3.34022C16.6363 3.47283 16.5835 3.6 16.4898 3.69377C16.396 3.78754 16.2689 3.84022 16.1363 3.84022ZM0.783561 3.69377C0.877324 3.78754 1.00452 3.84022 1.13712 3.84022C1.26972 3.84022 1.39685 3.78754 1.49061 3.69377C1.58438 3.6 1.63709 3.47283 1.63709 3.34022V1.02773H3.94946C4.08206 1.02773 4.20919 0.975057 4.30296 0.881289C4.39672 0.787522 4.44943 0.660345 4.44943 0.527737C4.44943 0.39513 4.39672 0.267953 4.30296 0.174186C4.20919 0.0804182 4.08206 0.0277405 3.94946 0.0277405H1.13712C1.00452 0.0277405 0.877324 0.0804182 0.783561 0.174186C0.689798 0.267953 0.637146 0.39513 0.637146 0.527737V3.34022C0.637146 3.47283 0.689798 3.6 0.783561 3.69377ZM16.1363 16.0274H13.3239C13.1913 16.0274 13.0641 15.9747 12.9704 15.8809C12.8766 15.7871 12.824 15.66 12.824 15.5274C12.824 15.3947 12.8766 15.2676 12.9704 15.1738C13.0641 15.08 13.1913 15.0274 13.3239 15.0274H15.6363V12.7149C15.6363 12.5823 15.689 12.4551 15.7827 12.3613C15.8765 12.2675 16.0037 12.2149 16.1363 12.2149C16.2689 12.2149 16.396 12.2675 16.4898 12.3613C16.5835 12.4551 16.6362 12.5823 16.6362 12.7149V15.5274C16.6362 15.66 16.5835 15.7871 16.4898 15.8809C16.396 15.9747 16.2689 16.0274 16.1363 16.0274ZM1.13712 16.0274H3.94946C4.08206 16.0274 4.20919 15.9747 4.30296 15.8809C4.39672 15.7871 4.44943 15.66 4.44943 15.5274C4.44943 15.3947 4.39672 15.2676 4.30296 15.1738C4.20919 15.08 4.08206 15.0274 3.94946 15.0274H1.63709V12.7149C1.63709 12.5823 1.58438 12.4551 1.49061 12.3613C1.39685 12.2675 1.26972 12.2149 1.13712 12.2149C1.00452 12.2149 0.877324 12.2675 0.783561 12.3613C0.689798 12.4551 0.637146 12.5823 0.637146 12.7149V15.5274C0.637146 15.66 0.689798 15.7871 0.783561 15.8809C0.877324 15.9747 1.00452 16.0274 1.13712 16.0274Z" fill="white"/>
</svg>
