<svg width="17" height="16" viewBox="0 0 17 16" fill="none" xmlns="http://www.w3.org/2000/svg">
<path fill-rule="evenodd" clip-rule="evenodd" d="M0.30658 15.8498C0.400348 15.9436 0.527548 15.9962 0.660156 15.9962C0.792764 15.9962 0.919904 15.9436 1.01367 15.8498C1.10744 15.7561 1.16016 15.6289 1.16016 15.4964V0.499883C1.16016 0.367306 1.10744 0.240158 1.01367 0.146412C0.919904 0.0526657 0.792764 0 0.660156 0C0.527548 0 0.400348 0.0526657 0.30658 0.146412C0.212811 0.240158 0.160156 0.367306 0.160156 0.499883V15.4964C0.160156 15.6289 0.212811 15.7561 0.30658 15.8498ZM13.1602 16H15.6602C15.7928 16 15.9199 15.9473 16.0137 15.8536C16.1074 15.7598 16.1602 15.6327 16.1602 15.5001V0.503637C16.1602 0.371059 16.1074 0.243912 16.0137 0.150166C15.9199 0.0564194 15.7928 0.00375366 15.6602 0.00375366H13.1602C13.0275 0.00375366 12.9003 0.0564194 12.8066 0.150166C12.7128 0.243912 12.6602 0.371059 12.6602 0.503637V15.5001C12.6602 15.6327 12.7128 15.7598 12.8066 15.8536C12.9003 15.9473 13.0275 16 13.1602 16ZM15.1602 15.0002H13.6602V1.00352H15.1602V15.0002ZM10.6564 16H8.15637C8.02376 16 7.89662 15.9473 7.80286 15.8536C7.70909 15.7598 7.65637 15.6327 7.65637 15.5001V0.503637C7.65637 0.371059 7.70909 0.243912 7.80286 0.150166C7.89662 0.0564194 8.02376 0.00375366 8.15637 0.00375366H10.6564C10.789 0.00375366 10.9162 0.0564194 11.0099 0.150166C11.1037 0.243912 11.1564 0.371059 11.1564 0.503637V15.5001C11.1564 15.6327 11.1037 15.7598 11.0099 15.8536C10.9162 15.9473 10.789 16 10.6564 16ZM8.65637 15.0002H10.1564V1.00352H8.65637V15.0002ZM3.16016 16H5.66016C5.79276 16 5.9199 15.9473 6.01367 15.8536C6.10744 15.7598 6.16016 15.6327 6.16016 15.5001V0.503637C6.16016 0.371059 6.10744 0.243912 6.01367 0.150166C5.9199 0.0564194 5.79276 0.00375366 5.66016 0.00375366H3.16016C3.02755 0.00375366 2.90035 0.0564194 2.80658 0.150166C2.71281 0.243912 2.66016 0.371059 2.66016 0.503637V15.5001C2.66016 15.6327 2.71281 15.7598 2.80658 15.8536C2.90035 15.9473 3.02755 16 3.16016 16ZM5.16016 15.0002H3.66016V1.00352H5.16016V15.0002Z" fill="white"/>
</svg>
