<svg width="17" height="17" viewBox="0 0 17 17" fill="none" xmlns="http://www.w3.org/2000/svg">
<path fill-rule="evenodd" clip-rule="evenodd" d="M1.16016 16.0303H8.66016C8.79276 16.0303 8.9199 15.9776 9.01367 15.8838C9.10744 15.7901 9.16016 15.6629 9.16016 15.5303V0.530273C9.16016 0.397665 9.10744 0.270488 9.01367 0.17672C8.9199 0.0829515 8.79276 0.0302734 8.66016 0.0302734H1.16016C1.02755 0.0302734 0.900348 0.0829515 0.80658 0.17672C0.712811 0.270488 0.660156 0.397665 0.660156 0.530273V15.5303C0.660156 15.6629 0.712811 15.7901 0.80658 15.8838C0.900348 15.9776 1.02755 16.0303 1.16016 16.0303ZM8.16016 15.0303H1.66016V1.03027H8.16016V15.0303ZM15.8066 15.8838C15.9003 15.9776 16.0275 16.0303 16.1602 16.0303C16.2928 16.0303 16.4199 15.9776 16.5137 15.8838C16.6074 15.7901 16.6602 15.6629 16.6602 15.5303V0.530273C16.6602 0.397665 16.6074 0.270488 16.5137 0.17672C16.4199 0.0829515 16.2928 0.0302734 16.1602 0.0302734C16.0275 0.0302734 15.9003 0.0829515 15.8066 0.17672C15.7128 0.270488 15.6602 0.397665 15.6602 0.530273V15.5303C15.6602 15.6629 15.7128 15.7901 15.8066 15.8838Z" fill="white"/>
</svg>
