<svg width="17" height="17" viewBox="0 0 17 17" fill="none" xmlns="http://www.w3.org/2000/svg">
<path fill-rule="evenodd" clip-rule="evenodd" d="M0.680176 5.01527C0.547568 5.01527 0.420367 4.9626 0.326599 4.86883C0.232831 4.77506 0.180176 4.64788 0.180176 4.51527V0.530273C0.180176 0.397665 0.232831 0.270488 0.326599 0.17672C0.420367 0.0829515 0.547568 0.0302734 0.680176 0.0302734H4.66516C4.79777 0.0302734 4.92497 0.0829515 5.01874 0.17672C5.11251 0.270488 5.16516 0.397665 5.16516 0.530273C5.16516 0.662882 5.11251 0.790059 5.01874 0.883827C4.92497 0.977595 4.79777 1.03027 4.66516 1.03027H1.18018V4.51527C1.18018 4.58094 1.16722 4.64595 1.14209 4.70662C1.11696 4.76728 1.08012 4.8224 1.03369 4.86883C0.987262 4.91526 0.932184 4.95209 0.871521 4.97721C0.810858 5.00234 0.745837 5.01527 0.680176 5.01527ZM4.66516 16.0303H0.680176C0.547568 16.0303 0.420367 15.9776 0.326599 15.8838C0.232831 15.7901 0.180176 15.6629 0.180176 15.5303V11.5465C0.180176 11.4139 0.232831 11.2867 0.326599 11.193C0.420367 11.0992 0.547568 11.0465 0.680176 11.0465C0.812784 11.0465 0.939923 11.0992 1.03369 11.193C1.12746 11.2867 1.18018 11.4139 1.18018 11.5465V15.0303H4.66516C4.79777 15.0303 4.92497 15.083 5.01874 15.1767C5.11251 15.2705 5.16516 15.3977 5.16516 15.5303C5.16516 15.6629 5.11251 15.7901 5.01874 15.8838C4.92497 15.9776 4.79777 16.0303 4.66516 16.0303ZM11.6964 16.0303H15.6802C15.8128 16.0303 15.9399 15.9776 16.0337 15.8838C16.1275 15.7901 16.1802 15.6629 16.1802 15.5303V11.5465C16.1802 11.4139 16.1275 11.2867 16.0337 11.193C15.9399 11.0992 15.8128 11.0465 15.6802 11.0465C15.5476 11.0465 15.4204 11.0992 15.3266 11.193C15.2328 11.2867 15.1802 11.4139 15.1802 11.5465V15.0303H11.6964C11.5638 15.0303 11.4366 15.083 11.3428 15.1767C11.2491 15.2705 11.1964 15.3977 11.1964 15.5303C11.1964 15.6629 11.2491 15.7901 11.3428 15.8838C11.4366 15.9776 11.5638 16.0303 11.6964 16.0303ZM15.6802 5.01527C15.5476 5.01527 15.4204 4.9626 15.3266 4.86883C15.2328 4.77506 15.1802 4.64788 15.1802 4.51527V1.03027H11.6964C11.5638 1.03027 11.4366 0.977595 11.3428 0.883827C11.2491 0.790059 11.1964 0.662882 11.1964 0.530273C11.1964 0.397665 11.2491 0.270488 11.3428 0.17672C11.4366 0.0829515 11.5638 0.0302734 11.6964 0.0302734H15.6802C15.8128 0.0302734 15.9399 0.0829515 16.0337 0.17672C16.1275 0.270488 16.1802 0.397665 16.1802 0.530273V4.51527C16.1802 4.58094 16.1672 4.64595 16.1421 4.70662C16.117 4.76728 16.0801 4.8224 16.0337 4.86883C15.9873 4.91526 15.9322 4.95209 15.8715 4.97721C15.8109 5.00234 15.7458 5.01527 15.6802 5.01527ZM5.17493 11.0355C5.97196 11.8325 7.05301 12.2803 8.18018 12.2803C9.30735 12.2803 10.3883 11.8325 11.1854 11.0355C11.9824 10.2384 12.4302 9.15744 12.4302 8.03027C12.4302 6.9031 11.9824 5.8221 11.1854 5.02507C10.3883 4.22804 9.30735 3.78027 8.18018 3.78027C7.05301 3.78027 5.97196 4.22804 5.17493 5.02507C4.3779 5.8221 3.93018 6.9031 3.93018 8.03027C3.93018 9.15744 4.3779 10.2384 5.17493 11.0355ZM5.88208 5.73218C6.49157 5.12268 7.31822 4.78027 8.18018 4.78027C9.04213 4.78027 9.86878 5.12268 10.4783 5.73218C11.0878 6.34167 11.4302 7.16832 11.4302 8.03027C11.4302 8.89223 11.0878 9.71888 10.4783 10.3284C9.86878 10.9379 9.04213 11.2803 8.18018 11.2803C7.31822 11.2803 6.49157 10.9379 5.88208 10.3284C5.27259 9.71888 4.93018 8.89223 4.93018 8.03027C4.93018 7.16832 5.27259 6.34167 5.88208 5.73218Z" fill="white"/>
</svg>
